<svg width="50" height="50" viewBox="0 0 50 50" fill="none" xmlns="http://www.w3.org/2000/svg">
<path d="M25 37.5C25.7083 37.5 26.3025 37.26 26.7825 36.78C27.2625 36.3 27.5016 35.7067 27.5 35C27.4983 34.2933 27.2583 33.7 26.78 33.22C26.3017 32.74 25.7083 32.5 25 32.5C24.2917 32.5 23.6983 32.74 23.22 33.22C22.7417 33.7 22.5017 34.2933 22.5 35C22.4983 35.7067 22.7383 36.3008 23.22 36.7825C23.7017 37.2642 24.295 37.5033 25 37.5ZM22.5 27.5H27.5V12.5H22.5V27.5ZM25 50C21.5417 50 18.2917 49.3433 15.25 48.03C12.2083 46.7167 9.5625 44.9358 7.3125 42.6875C5.0625 40.4392 3.28167 37.7933 1.97 34.75C0.658336 31.7067 0.00166983 28.4567 3.16455e-06 25C-0.0016635 21.5433 0.655003 18.2933 1.97 15.25C3.285 12.2067 5.06583 9.56083 7.3125 7.3125C9.55916 5.06417 12.205 3.28333 15.25 1.97C18.295 0.656667 21.545 0 25 0C28.455 0 31.705 0.656667 34.75 1.97C37.795 3.28333 40.4408 5.06417 42.6875 7.3125C44.9341 9.56083 46.7158 12.2067 48.0325 15.25C49.3491 18.2933 50.005 21.5433 50 25C49.995 28.4567 49.3383 31.7067 48.03 34.75C46.7216 37.7933 44.9408 40.4392 42.6875 42.6875C40.4341 44.9358 37.7883 46.7175 34.75 48.0325C31.7116 49.3475 28.4617 50.0033 25 50Z" fill="#FF3F3F"/>
</svg>
