<svg width="185" height="175" viewBox="0 0 185 175" fill="none" xmlns="http://www.w3.org/2000/svg">
<rect width="185" height="175" fill="#91929E"/>
<path d="M143 38H43V69.5789H48V127.474C48 130.265 49.0536 132.943 50.9289 134.917C52.8043 136.891 55.3478 138 58 138H128C130.652 138 133.196 136.891 135.071 134.917C136.946 132.943 138 130.265 138 127.474V69.5789H143V38ZM53 48.5263H133V59.0526H53V48.5263ZM128 127.474H58V69.5789H128V127.474ZM78 80.1053H108C108 82.897 106.946 85.5744 105.071 87.5485C103.196 89.5226 100.652 90.6316 98 90.6316H88C85.3478 90.6316 82.8043 89.5226 80.9289 87.5485C79.0536 85.5744 78 82.897 78 80.1053Z" fill="white"/>
</svg>
